<?xml version="1.0" encoding="UTF-8" standalone="no"?><!DOCTYPE svg PUBLIC "-//W3C//DTD SVG 1.1//EN" "http://www.w3.org/Graphics/SVG/1.1/DTD/svg11.dtd"><svg width="100%" height="100%" viewBox="0 0 5246 1459" version="1.1" xmlns="http://www.w3.org/2000/svg" xmlns:xlink="http://www.w3.org/1999/xlink" xml:space="preserve" xmlns:serif="http://www.serif.com/" style="fill-rule:evenodd;clip-rule:evenodd;stroke-linejoin:round;stroke-miterlimit:2;"><rect id="Mesa-de-trabajo2" serif:id="Mesa de trabajo2" x="-997.199" y="-2724.07" width="9612.22" height="5153.88" style="fill:none;"/><g><g><circle cx="729.167" cy="729.167" r="729.167" style="fill:#3c16b7;"/><g><path d="M506.181,423.378c-245.452,4.014 -349.562,151.24 -352.17,401.309c1.481,205.023 56.667,374.75 352.17,386.534l-0,-787.843Z" style="fill:#fff;"/><path d="M838.784,1208.23l-72.171,-0l-0,-349.744c27.197,4.604 47.24,5.684 72.171,6.799l-0,342.945Z" style="fill:#fff;"/><path d="M492.77,427.514l713.063,0c21.648,250.568 -52.812,413.038 -280.549,435.002c-187.617,17.469 -305.294,-35.002 -337.049,-173.395l79.306,0c38.06,86.495 129.454,114.623 257.743,102.376c106.508,-24.472 203.891,-65.626 200.792,-290.474l-633.306,0l0,-73.509Z" style="fill:#fff;"/><path d="M933.339,272.194c80.487,0 145.833,65.346 145.833,145.833c0,80.488 -65.346,145.834 -145.833,145.834c-80.488,-0 -145.834,-65.346 -145.834,-145.834c0,-80.487 65.346,-145.833 145.834,-145.833Zm-0,72.917c40.244,-0 72.916,32.673 72.916,72.916c0,40.244 -32.672,72.917 -72.916,72.917c-40.244,0 -72.917,-32.673 -72.917,-72.917c0,-40.243 32.673,-72.916 72.917,-72.916Z" style="fill:#fff;"/><circle cx="1197.93" cy="432.819" r="77.083" style="fill:#fff;"/><path d="M680.221,274.688c80.488,-0 145.833,65.346 145.833,145.833c0,80.488 -65.345,145.834 -145.833,145.834c-80.488,-0 -145.833,-65.346 -145.833,-145.834c-0,-80.487 65.345,-145.833 145.833,-145.833Zm0,72.917c40.244,-0 72.917,32.672 72.917,72.916c-0,40.244 -32.673,72.917 -72.917,72.917c-40.244,-0 -72.917,-32.673 -72.917,-72.917c0,-40.244 32.673,-72.916 72.917,-72.916Z" style="fill:#fff;"/></g></g><g><text x="4135.12px" y="946.343px" style="font-family:'AbletonSansSmall-Regular', 'Ableton Sans Small';font-weight:500;font-size:675.142px;fill:#3c16b7;">P<tspan x="4556.41px 4952.72px " y="946.343px 946.343px ">et</tspan></text><text x="1548.93px" y="904.602px" style="font-family:'AbletonSansSmall-Regular', 'Ableton Sans Small';font-weight:500;font-size:675.142px;fill:#3c16b7;">Puck<tspan x="3161.85px " y="904.602px ">y</tspan></text><g><rect x="3786.66" y="482.946" width="123.183" height="451.673" style="fill:#f6342b;"/><path d="M3622.41,647.191l0,123.183l451.673,0l0,-123.183l-451.673,-0Z" style="fill:#f6342b;"/></g></g></g></svg>